<svg width="19" height="19" viewBox="0 0 19 19" fill="none" xmlns="http://www.w3.org/2000/svg">
    <path
        d="M17.5 14.6711V9.12313C17.5 8.5888 17.4995 8.32148 17.4346 8.07284C17.377 7.8525 17.2825 7.64398 17.1546 7.45555C17.0102 7.24292 16.8096 7.0666 16.4074 6.71474L11.6074 2.51474C10.8608 1.86145 10.4875 1.53497 10.0674 1.41073C9.69719 1.30126 9.30261 1.30126 8.93242 1.41073C8.51261 1.53488 8.13985 1.86105 7.39436 2.51335L2.59277 6.71474C2.19064 7.0666 1.99004 7.24292 1.8457 7.45555C1.71779 7.64398 1.62255 7.8525 1.56497 8.07284C1.5 8.32148 1.5 8.58879 1.5 9.12313V14.6711C1.5 15.603 1.5 16.0687 1.65224 16.4363C1.85523 16.9263 2.24432 17.3161 2.73438 17.5191C3.10192 17.6714 3.56786 17.6714 4.49974 17.6714C5.43163 17.6714 5.89808 17.6714 6.26562 17.5191C6.75568 17.3161 7.14467 16.9264 7.34766 16.4364C7.4999 16.0688 7.5 15.6029 7.5 14.671V13.671C7.5 12.5664 8.39543 11.671 9.5 11.671C10.6046 11.671 11.5 12.5664 11.5 13.671V14.671C11.5 15.6029 11.5 16.0688 11.6522 16.4364C11.8552 16.9264 12.2443 17.3161 12.7344 17.5191C13.1019 17.6714 13.5679 17.6714 14.4997 17.6714C15.4316 17.6714 15.8981 17.6714 16.2656 17.5191C16.7557 17.3161 17.1447 16.9263 17.3477 16.4363C17.4999 16.0687 17.5 15.603 17.5 14.6711Z"
        stroke="white" stroke-width="2" stroke-linecap="round" stroke-linejoin="round" />
</svg>