<svg width="21" height="19" viewBox="0 0 21 19" fill="none" xmlns="http://www.w3.org/2000/svg">
    <path
        d="M1.49988 3.5V14.3C1.49988 15.4201 1.49988 15.9798 1.71786 16.4076C1.90961 16.7839 2.21535 17.0905 2.59167 17.2822C3.01908 17.5 3.57887 17.5 4.69679 17.5H16.303C17.4209 17.5 17.9799 17.5 18.4073 17.2822C18.7836 17.0905 19.0904 16.7841 19.2821 16.4078C19.5001 15.98 19.5001 15.4199 19.5001 14.2998L19.5001 6.69978C19.5001 5.57967 19.5001 5.01962 19.2821 4.5918C19.0904 4.21547 18.7838 3.90973 18.4075 3.71799C17.9796 3.5 17.42 3.5 16.2999 3.5H10.4999M1.49988 3.5H10.4999M1.49988 3.5C1.49988 2.39543 2.39531 1.5 3.49988 1.5H7.17439C7.66358 1.5 7.90874 1.5 8.13892 1.55526C8.34299 1.60425 8.53773 1.68526 8.71667 1.79492C8.91844 1.91857 9.09169 2.09182 9.43738 2.4375L10.4999 3.5"
        stroke="white" stroke-width="2" stroke-linecap="round" stroke-linejoin="round" />
</svg>