<svg width="24" height="30" viewBox="0 0 24 30" fill="none" xmlns="http://www.w3.org/2000/svg">
<path d="M10.5 22.5H13.5V13.5H10.5V22.5ZM12 10.5C12.425 10.5 12.7815 10.356 13.0695 10.068C13.3565 9.781 13.5 9.425 13.5 9C13.5 8.575 13.3565 8.2185 13.0695 7.9305C12.7815 7.6435 12.425 7.5 12 7.5C11.575 7.5 11.219 7.6435 10.932 7.9305C10.644 8.2185 10.5 8.575 10.5 9C10.5 9.425 10.644 9.781 10.932 10.068C11.219 10.356 11.575 10.5 12 10.5ZM12 30C8.525 29.125 5.6565 27.131 3.3945 24.018C1.1315 20.906 0 17.45 0 13.65V4.5L12 0L24 4.5V13.65C24 17.45 22.869 20.906 20.607 24.018C18.344 27.131 15.475 29.125 12 30Z" fill="white"/>
</svg>
