<svg width="23" height="21" viewBox="0 0 23 21" fill="none" xmlns="http://www.w3.org/2000/svg">
    <path
        d="M19.8499 7.42304L19.4837 7.21931C19.4269 7.18767 19.3989 7.1718 19.3714 7.15534C19.0983 6.99176 18.8682 6.76574 18.7002 6.49534C18.6833 6.46813 18.6674 6.4396 18.6348 6.3832C18.6023 6.32688 18.5858 6.29834 18.5706 6.27009C18.42 5.98877 18.3385 5.67526 18.3336 5.35617C18.3331 5.32409 18.3332 5.29131 18.3343 5.22615L18.3415 4.80089C18.3529 4.12036 18.3587 3.77904 18.263 3.47273C18.1781 3.20064 18.036 2.95003 17.8462 2.73736C17.6317 2.49696 17.3347 2.32545 16.7402 1.98287L16.2464 1.69831C15.6536 1.35669 15.3571 1.18582 15.0423 1.12067C14.7639 1.06304 14.4765 1.06572 14.1991 1.128C13.8859 1.19829 13.5931 1.37362 13.0079 1.72407L13.0045 1.72565L12.6507 1.93752C12.5948 1.97102 12.5665 1.9879 12.5384 2.00349C12.2601 2.15821 11.9495 2.24376 11.6312 2.25398C11.5992 2.255 11.5665 2.255 11.5013 2.255C11.4365 2.255 11.4024 2.255 11.3704 2.25398C11.0515 2.24372 10.7402 2.1577 10.4615 2.00234C10.4334 1.98668 10.4056 1.96966 10.3496 1.93601L9.99349 1.72224C9.40422 1.36847 9.10915 1.19132 8.79427 1.12067C8.5157 1.05817 8.22737 1.05644 7.94791 1.11482C7.63236 1.18072 7.33577 1.35286 6.74258 1.69714L6.73994 1.69831L6.25228 1.98134L6.24688 1.98465C5.65904 2.32582 5.36441 2.49682 5.1517 2.73624C4.96294 2.94871 4.82185 3.19892 4.7374 3.47028C4.64194 3.77702 4.64703 4.11907 4.65853 4.8028L4.66568 5.22746C4.66676 5.29177 4.66864 5.32373 4.66817 5.35535C4.66343 5.6751 4.58086 5.98924 4.42974 6.27107C4.4148 6.29894 4.3987 6.32681 4.36654 6.38248C4.33436 6.43819 4.31877 6.4659 4.30209 6.49278C4.13336 6.76463 3.90214 6.99197 3.62733 7.15583C3.60015 7.17204 3.5715 7.18763 3.51521 7.21882L3.15365 7.41919C2.55208 7.75256 2.25137 7.91939 2.03256 8.1568C1.83898 8.36683 1.69275 8.61596 1.60349 8.88728C1.50259 9.19398 1.50267 9.53789 1.50424 10.2257L1.50551 10.7878C1.50706 11.471 1.50919 11.8123 1.61032 12.1169C1.69979 12.3864 1.84495 12.6341 2.03744 12.8428C2.25502 13.0788 2.55274 13.2446 3.14974 13.5767L3.50808 13.7761C3.56907 13.81 3.59976 13.8268 3.62917 13.8445C3.90148 14.0084 4.13089 14.2351 4.29818 14.5054C4.31625 14.5346 4.3336 14.565 4.3683 14.6256C4.40256 14.6854 4.42009 14.7154 4.43594 14.7454C4.58261 15.023 4.66114 15.3316 4.66649 15.6456C4.66707 15.6795 4.66658 15.7138 4.66541 15.7828L4.65853 16.1903C4.64695 16.8764 4.6419 17.2198 4.73792 17.5274C4.82287 17.7995 4.96484 18.0501 5.15463 18.2628C5.36915 18.5032 5.66655 18.6746 6.26107 19.0172L6.75478 19.3017C7.34763 19.6433 7.64395 19.814 7.95869 19.8791C8.23714 19.9367 8.52464 19.9345 8.80209 19.8722C9.11567 19.8018 9.40948 19.6259 9.99642 19.2744L10.3502 19.0626C10.4062 19.0291 10.4346 19.0122 10.4626 18.9967C10.7409 18.8419 11.0512 18.7559 11.3695 18.7457C11.4015 18.7447 11.4342 18.7447 11.4994 18.7447C11.5648 18.7447 11.5974 18.7447 11.6295 18.7457C11.9484 18.756 12.2607 18.8423 12.5394 18.9976C12.5639 19.0113 12.5885 19.0261 12.6316 19.052L13.0078 19.2778C13.5971 19.6316 13.8916 19.8082 14.2065 19.8789C14.485 19.9414 14.7736 19.9439 15.0531 19.8856C15.3685 19.8197 15.6657 19.6472 16.2586 19.3031L16.7536 19.0158C17.3418 18.6744 17.6367 18.5032 17.8495 18.2637C18.0383 18.0513 18.1796 17.8012 18.264 17.5298C18.3588 17.2253 18.3531 16.8859 18.3417 16.212L18.3343 15.7725C18.3332 15.7082 18.3331 15.6762 18.3336 15.6446C18.3383 15.3249 18.4195 15.0105 18.5706 14.7287C18.5856 14.7008 18.6018 14.6728 18.6338 14.6173C18.666 14.5616 18.6827 14.5338 18.6994 14.5069C18.8681 14.2351 19.0995 14.0075 19.3744 13.8437C19.4012 13.8276 19.4289 13.8123 19.4838 13.7819L19.4857 13.781L19.8472 13.5806C20.4488 13.2473 20.7501 13.0803 20.9689 12.8428C21.1625 12.6328 21.3085 12.384 21.3978 12.1127C21.4981 11.8078 21.4973 11.4659 21.4958 10.7862L21.4945 10.212C21.4929 9.52881 21.4921 9.1875 21.391 8.88288C21.3015 8.61338 21.1555 8.36572 20.963 8.15696C20.7457 7.92121 20.4475 7.75536 19.8517 7.42389L19.8499 7.42304Z"
        stroke="white" stroke-width="2" stroke-linecap="round" stroke-linejoin="round" />
    <path
        d="M7.50033 10.5001C7.50033 12.7092 9.29119 14.5001 11.5003 14.5001C13.7095 14.5001 15.5003 12.7092 15.5003 10.5001C15.5003 8.29093 13.7095 6.50007 11.5003 6.50007C9.29119 6.50007 7.50033 8.29093 7.50033 10.5001Z"
        stroke="white" stroke-width="2" stroke-linecap="round" stroke-linejoin="round" />
</svg>