<svg width="24" height="28" viewBox="0 0 24 28" fill="none" xmlns="http://www.w3.org/2000/svg">
<path d="M20 19.4933C18.9867 19.4933 18.08 19.8933 17.3867 20.52L7.88 14.9867C7.94667 14.68 8 14.3733 8 14.0533C8 13.7333 7.94667 13.4267 7.88 13.12L17.28 7.64C18 8.30667 18.9467 8.72 20 8.72C22.2133 8.72 24 6.93333 24 4.72C24 2.50667 22.2133 0.720001 20 0.720001C17.7867 0.720001 16 2.50667 16 4.72C16 5.04 16.0533 5.34667 16.12 5.65333L6.72 11.1333C6 10.4667 5.05333 10.0533 4 10.0533C1.78667 10.0533 0 11.84 0 14.0533C0 16.2667 1.78667 18.0533 4 18.0533C5.05333 18.0533 6 17.64 6.72 16.9733L16.2133 22.52C16.1467 22.8 16.1067 23.0933 16.1067 23.3867C16.1067 25.5333 17.8533 27.28 20 27.28C22.1467 27.28 23.8933 25.5333 23.8933 23.3867C23.8933 21.24 22.1467 19.4933 20 19.4933Z" fill="white"/>
</svg>
