<svg width="24" height="24" viewBox="0 0 24 24" fill="none" xmlns="http://www.w3.org/2000/svg">
<g clip-path="url(#clip0_180_196)">
<path d="M12.2926 4.76135C8.76913 4.76135 5.90259 7.62789 5.90259 11.1513C5.90259 12.595 6.3755 13.9583 7.27025 15.0934C7.44171 15.311 7.62637 15.5253 7.80486 15.7326C8.33792 16.3511 8.8413 16.9354 9.02047 17.5925C9.02433 17.6067 9.05806 17.7447 9.05308 18.2144L9.05222 18.2823C9.04682 18.6636 9.03961 19.1857 9.42567 19.5773C9.69006 19.8454 10.0606 19.9759 10.5587 19.9759H14.0145C14.5524 19.9759 14.9391 19.8442 15.1967 19.5735C15.5452 19.2073 15.5218 18.7343 15.5063 18.4213C15.5035 18.3659 15.5006 18.3101 15.4999 18.2545C15.4944 17.7842 15.5295 17.6516 15.531 17.6461C15.713 16.989 16.3027 16.2961 16.8231 15.6848C16.9967 15.4809 17.1607 15.2882 17.3134 15.0945C18.2085 13.9593 18.6816 12.5957 18.6816 11.1514C18.6817 7.62798 15.8156 4.76135 12.2926 4.76135ZM16.3027 14.2974C16.1648 14.4722 16.0085 14.656 15.8429 14.8505C15.2362 15.5633 14.5485 16.3713 14.2907 17.3023C14.2539 17.435 14.2059 17.6795 14.213 18.2697C14.2139 18.3413 14.2172 18.4134 14.2208 18.4848C14.2236 18.5412 14.2273 18.6155 14.2269 18.6744C14.1816 18.6817 14.1132 18.6886 14.0145 18.6886H10.5587C10.4492 18.6886 10.3852 18.677 10.3524 18.6683C10.3354 18.5844 10.3378 18.4102 10.3393 18.3004L10.3403 18.228C10.3465 17.6342 10.2989 17.388 10.2625 17.2542C10.0068 16.3157 9.35505 15.5595 8.78011 14.8923C8.60283 14.6865 8.43523 14.4921 8.28129 14.2966C7.56734 13.3907 7.18994 12.303 7.18994 11.1512C7.18994 8.33756 9.47905 6.04844 12.2927 6.04844C15.1059 6.04844 17.3947 8.33756 17.3947 11.1512C17.3945 12.3036 17.017 13.3916 16.3027 14.2974Z" fill="white"/>
<path d="M13.8814 20.5574H10.7029C10.0168 20.5574 9.45862 21.1156 9.45862 21.8017V22.7556C9.45862 23.4417 10.0168 23.9999 10.7029 23.9999H13.8814C14.5675 23.9999 15.1257 23.4417 15.1257 22.7556V21.8017C15.1257 21.1156 14.5675 20.5574 13.8814 20.5574ZM13.8385 22.7128H10.7458V21.8447H13.8385V22.7128Z" fill="white"/>
<path d="M12.2921 3.92838C12.6476 3.92838 12.9357 3.64031 12.9357 3.28479V0.643588C12.9357 0.28807 12.6476 0 12.2921 0C11.9366 0 11.6485 0.28807 11.6485 0.643588V3.28479C11.6485 3.64031 11.9367 3.92838 12.2921 3.92838Z" fill="white"/>
<path d="M20.7593 2.96891C20.5141 2.7119 20.1067 2.70238 19.8494 2.94763L17.8955 4.81232C17.6383 5.05765 17.6288 5.46509 17.8742 5.72226C18.0007 5.85476 18.1701 5.92152 18.3399 5.92152C18.4995 5.92152 18.6595 5.86248 18.7841 5.74355L20.7381 3.87877C20.9952 3.63343 21.0047 3.226 20.7593 2.96891Z" fill="white"/>
<path d="M22.6777 9.40488C22.6774 9.40488 22.677 9.40488 22.6767 9.40488L20.1615 9.40891C19.806 9.40951 19.5183 9.6981 19.5189 10.0535C19.5195 10.4087 19.8075 10.6961 20.1625 10.6961C20.1629 10.6961 20.1632 10.6961 20.1635 10.6961L22.6788 10.6921C23.0343 10.6915 23.3219 10.4029 23.3213 10.0474C23.3208 9.69226 23.0327 9.40488 22.6777 9.40488Z" fill="white"/>
<path d="M6.38321 5.55065C6.62854 5.29356 6.61911 4.88621 6.36193 4.6407L4.40799 2.77601C4.15107 2.53076 3.74364 2.54012 3.49805 2.79729C3.25271 3.05439 3.26215 3.46173 3.51933 3.70724L5.47326 5.57202C5.59786 5.69095 5.75773 5.74999 5.91751 5.74999C6.08724 5.74991 6.25672 5.68314 6.38321 5.55065Z" fill="white"/>
<path d="M3.83829 9.40891L1.32315 9.40488C1.3228 9.40488 1.32246 9.40488 1.32212 9.40488C0.967114 9.40488 0.679129 9.69243 0.678529 10.0474C0.677928 10.4029 0.965655 10.6915 1.32109 10.6921L3.83623 10.6961C3.83657 10.6961 3.83692 10.6961 3.83726 10.6961C4.19226 10.6961 4.48025 10.4085 4.48085 10.0535C4.48153 9.6981 4.19381 9.40943 3.83829 9.40891Z" fill="white"/>
</g>
<defs>
<clipPath id="clip0_180_196">
<rect width="24" height="24" fill="white"/>
</clipPath>
</defs>
</svg>
