<svg width="81" height="81" viewBox="0 0 81 81" fill="none" xmlns="http://www.w3.org/2000/svg">
<path d="M40.5 0L79.0178 27.9848L64.3053 73.2652H16.6947L1.98221 27.9848L40.5 0Z" fill="#FFF8F0"/>
<path d="M50.2158 53.6755H31.9708V49.2046L38.1098 42.9968C39.3823 41.667 40.3682 40.6009 41.0675 39.7984C41.7783 38.9959 42.2769 38.3138 42.5635 37.7521C42.8501 37.1903 42.9934 36.6057 42.9934 35.9981C42.9934 35.2529 42.7527 34.7141 42.2712 34.3816C41.7897 34.0492 41.2223 33.883 40.5688 33.883C39.7778 33.883 38.9753 34.1122 38.1614 34.5708C37.3589 35.0179 36.4475 35.6828 35.4272 36.5655L31.6957 32.1978C32.4523 31.5214 33.2548 30.8794 34.1031 30.2718C34.9515 29.6527 35.9546 29.1483 37.1124 28.7586C38.2703 28.3688 39.6804 28.1739 41.3426 28.1739C43.0508 28.1739 44.5296 28.472 45.7792 29.0681C47.0402 29.6642 48.0147 30.4839 48.7025 31.5271C49.3904 32.5589 49.7343 33.7339 49.7343 35.0523C49.7343 36.5082 49.4649 37.8094 48.9261 38.9558C48.3987 40.0907 47.602 41.2314 46.5358 42.3778C45.4697 43.5127 44.1398 44.8024 42.5463 46.2469L40.7064 47.8977V48.0697H50.2158V53.6755Z" fill="black"/>
</svg>
