<svg width="375" height="924" viewBox="0 0 375 924" fill="none" xmlns="http://www.w3.org/2000/svg">
<rect width="375" height="691" fill="#C0D6FF"/>
<path d="M-160 569L-138.867 557.233C-117.733 545.643 -75.4667 521.846 -33.2 519.642C9.06667 517.439 51.3333 535.948 93.6 543.131C135.867 550.05 178.133 545.643 220.4 526.693C262.667 507.744 304.933 475.132 347.2 475C389.467 475.132 431.733 507.744 452.867 524.358L474 540.796V569H452.867C431.733 569 389.467 569 347.2 569C304.933 569 262.667 569 220.4 569C178.133 569 135.867 569 93.6 569C51.3333 569 9.06667 569 -33.2 569C-75.4667 569 -117.733 569 -138.867 569H-160Z" fill="#8DB2F6"/>
<rect x="-4" y="560" width="377" height="364" fill="#8DB2F6"/>
<rect x="-4" y="706" width="377" height="218" fill="#76A4F9"/>
<path d="M-116 707L-94.8667 695.233C-73.7333 683.643 -31.4667 659.846 10.8 657.642C53.0667 655.439 95.3333 673.948 137.6 681.131C179.867 688.05 222.133 683.643 264.4 664.693C306.667 645.744 348.933 613.132 391.2 613C433.467 613.132 475.733 645.744 496.867 662.358L518 678.796V707H496.867C475.733 707 433.467 707 391.2 707C348.933 707 306.667 707 264.4 707C222.133 707 179.867 707 137.6 707C95.3333 707 53.0667 707 10.8 707C-31.4667 707 -73.7333 707 -94.8667 707H-116Z" fill="#76A5FA"/>
</svg>
